<?xml version="1.0" encoding="UTF-8"?>
<svg version="1.1" xmlns="http://www.w3.org/2000/svg" width="512" height="512">
<path d="M0 0 C168.96 0 337.92 0 512 0 C512 168.96 512 337.92 512 512 C343.04 512 174.08 512 0 512 C0 343.04 0 174.08 0 0 Z " fill="#005522" transform="translate(0,0)"/>
<path d="M0 0 C163.57352941 0 163.57352941 0 191.7109375 26.57421875 C207.81086496 43.63574598 209.54035276 63.23146164 209.2734375 85.65234375 C209.05566939 93.02519582 207.90683509 99.16547701 205 106 C204.525625 107.16273438 204.05125 108.32546875 203.5625 109.5234375 C195.59427255 127.18378777 181.88985926 137.77686555 164.09765625 144.62109375 C159.38004372 146.30898695 155.01241641 146.92043783 150 147 C150.33 147.99 150.66 148.98 151 150 C153.78317975 150.86113189 153.78317975 150.86113189 157.1875 151.375 C178.41561976 155.53441839 196.89136402 164.83659192 209.80859375 182.46875 C221.80371554 200.83547412 222.54430358 224.99443889 218.47705078 245.99194336 C213.90583815 266.70259073 203.2326844 284.00654393 185.1875 295.75 C132.4122747 328.66511219 53.0519633 315 0 315 C0 211.05 0 107.1 0 0 Z " fill="#FCFDFC" transform="translate(146,99)"/>
<path d="M0 0 C12.16875 -0.061875 24.3375 -0.12375 36.875 -0.1875 C40.6788623 -0.21481201 44.48272461 -0.24212402 48.40185547 -0.27026367 C53.14477539 -0.28381348 53.14477539 -0.28381348 55.38406372 -0.28633118 C56.90663302 -0.29085675 58.42919348 -0.30123243 59.95169067 -0.31672668 C82.31560167 -0.53240131 107.67184561 2.23545442 124.60546875 18.2890625 C134.87433642 29.91482785 138.79594751 43.68168266 138.2890625 59.03515625 C137.85997506 64.92061239 136.71216872 70.36255363 135 76 C134.75636719 76.84820312 134.51273438 77.69640625 134.26171875 78.5703125 C130.01686747 91.08357078 120.90516421 100.5918802 109.26171875 106.35546875 C92.47434966 113.9375785 74.71248353 114.15942878 56.640625 114.09765625 C55.18343138 114.09618177 53.72623723 114.09516418 52.26904297 114.09460449 C46.92935378 114.08941024 41.58967601 114.07544925 36.25 114.0625 C18.30625 114.0315625 18.30625 114.0315625 0 114 C0 76.38 0 38.76 0 0 Z " fill="#005522" transform="translate(186,266)"/>
<path d="M0 0 C9.9825 -0.04125 19.965 -0.0825 30.25 -0.125 C33.35696289 -0.14320801 36.46392578 -0.16141602 39.66503906 -0.18017578 C94.24342543 -0.36841787 94.24342543 -0.36841787 114 14 C114.825 14.556875 115.65 15.11375 116.5 15.6875 C124.90266771 23.45996763 127.77956607 32.80298917 128.28125 44.015625 C128.70020184 60.12135146 126.86417137 72.64650429 116.0703125 85.25390625 C103.28347057 97.96836983 82.87999332 100.29283436 65.65201759 100.34811592 C63.2665386 100.3394627 60.88146373 100.31683027 58.49609375 100.29296875 C56.9844191 100.28853927 55.47273978 100.28549026 53.96105957 100.28381348 C48.45313466 100.26830056 42.94530925 100.22641917 37.4375 100.1875 C25.083125 100.125625 12.72875 100.06375 0 100 C0 67 0 34 0 0 Z " fill="#005522" transform="translate(186,133)"/>
<path d="M0 0 C0.33 0 0.66 0 1 0 C1 13.53 1 27.06 1 41 C-12.53 41 -26.06 41 -40 41 C-36.77794772 39.38897386 -33.66489916 38.09649079 -30.3125 36.8125 C-16.32964928 30.99481758 -7.86955879 20.70813891 -2 7 C-1.17794005 4.65968578 -0.55034658 2.42152494 0 0 Z " fill="#000000" transform="translate(511,471)"/>
<path d="M0 0 C1.61102614 3.22205228 2.90350921 6.33510084 4.1875 9.6875 C10.00518242 23.67035072 20.29186109 32.13044121 34 38 C36.34031422 38.82205995 38.57847506 39.44965342 41 40 C41 40.33 41 40.66 41 41 C27.47 41 13.94 41 0 41 C0 27.47 0 13.94 0 0 Z " fill="#000000" transform="translate(0,471)"/>
<path d="M0 0 C13.53 0 27.06 0 41 0 C41 13.53 41 27.06 41 41 C39.38897386 37.77794772 38.09649079 34.66489916 36.8125 31.3125 C30.99481758 17.32964928 20.70813891 8.86955879 7 3 C4.65968578 2.17794005 2.42152494 1.55034658 0 1 C0 0.67 0 0.34 0 0 Z " fill="#000000" transform="translate(471,0)"/>
<path d="M0 0 C13.53 0 27.06 0 41 0 C37.77794772 1.61102614 34.66489916 2.90350921 31.3125 4.1875 C17.32964928 10.00518242 8.86955879 20.29186109 3 34 C2.17794005 36.34031422 1.55034658 38.57847506 1 41 C0.67 41 0.34 41 0 41 C0 27.47 0 13.94 0 0 Z " fill="#000000" transform="translate(0,0)"/>
</svg>
